<?xml version="1.0" encoding="UTF-8" standalone="no"?>
<!-- Created with Inkscape (http://www.inkscape.org/) -->

<svg
   version="1.1"
   id="svg1"
   width="2000"
   height="2000"
   viewBox="0 0 2000 2000"
   xmlns="http://www.w3.org/2000/svg"
   xmlns:svg="http://www.w3.org/2000/svg">
  <defs
     id="defs1" />
  <g
     id="g1">
    <path
       style="fill:#657840;fill-opacity:1"
       d="m 1791.6784,1625.5493 c -4.7193,-1.683 -6.6053,-4.0566 -6.6466,-8.365 -0.036,-3.7866 1.2134,-6.602 4.5206,-10.1843 l 2.3079,-2.5 -3.5606,-10.2747 -3.5607,-10.2748 -15.5435,0.2748 -15.5434,0.2747 -3.5761,10.2443 -3.576,10.2444 -4.75,0.01 c -2.6125,0 -4.7448,-0.3318 -4.7385,-0.7443 0.01,-0.4125 6.0211,-17.175 13.3662,-37.25 l 13.3548,-36.5 h 5.3837 5.3838 l 13.6545,37 13.6544,37 -3.9836,4.1185 c -3.1067,3.2119 -3.9111,4.7527 -3.6544,7 0.2988,2.616 0.6906,2.8876 4.2517,2.9482 2.9114,0.049 4.1178,0.5651 4.6797,2 1.3733,3.5066 0.9378,4.3282 -2.8523,5.3807 -4.4974,1.249 -3.8716,1.2781 -8.5716,-0.3981 z M 1781,1575.1425 c 0,-2.3679 -11.9848,-36.3141 -12.3851,-35.08 -0.2565,0.7906 -2.9747,8.977 -6.0406,18.192 -3.0659,9.215 -5.5743,16.9775 -5.5743,17.25 0,0.2725 5.4,0.4955 12,0.4955 6.6,0 12,-0.3859 12,-0.8575 z m -1552.66755,29.0671 c -15.06577,-5.3832 -23.06356,-19.5796 -22.11604,-39.2568 0.38929,-8.0843 0.96476,-10.7428 3.49672,-16.1535 7.05428,-15.0746 21.83012,-22.3376 37.35316,-18.3608 10.68833,2.7382 19.75162,11.2846 21.53987,20.3115 L 269.25,1554 h -4.54745 c -4.29376,0 -4.61067,-0.1916 -5.68078,-3.434 -1.45076,-4.3959 -7.7861,-10.1291 -12.70099,-11.4939 -14.12777,-3.923 -27.23509,4.5642 -30.37005,19.6652 -3.27721,15.7863 2.48139,31.2426 13.54927,36.3668 5.04813,2.3372 14.44144,2.4791 18.79966,0.2839 4.74093,-2.3879 9.51587,-7.299 10.75906,-11.0659 1.022,-3.0967 1.3964,-3.3221 5.51883,-3.3221 3.54891,0 4.42052,0.3457 4.41268,1.75 -0.0174,3.1214 -4.65819,11.6674 -8.11777,14.9488 -7.74118,7.3425 -22.14609,10.2247 -32.54001,6.5108 z m 74.87251,-0.1038 c -9.81481,-3.3901 -17.67335,-12.0294 -20.83498,-22.9051 -2.53554,-8.7219 -1.55612,-25.2643 1.91365,-32.3215 4.05563,-8.2488 8.09513,-12.448 15.46459,-16.076 5.84165,-2.8758 7.62005,-3.2767 14.2144,-3.2042 10.0849,0.111 16.45957,2.8942 22.98689,10.0361 7.38546,8.0809 9.44999,14.2529 9.50534,28.4168 0.0446,11.4107 -0.002,11.6463 -3.77564,19.2827 -2.87561,5.8184 -5.05631,8.7074 -8.81533,11.6788 -8.63498,6.8255 -20.11884,8.733 -30.65892,5.0924 z M 323.5,1595.1041 c 8.12854,-3.7634 13.21671,-12.3317 14.18429,-23.8859 1.19741,-14.2986 -3.80827,-25.5017 -13.6136,-30.4682 -9.37687,-4.7495 -18.62198,-3.2538 -26.09881,4.2223 -5.69555,5.695 -7.97188,12.2925 -7.97188,23.105 0,12.9542 4.94394,22.2515 14.5,27.2678 4.18934,2.1992 13.9983,2.0747 19,-0.241 z m 120.83245,9.1055 c -15.06577,-5.3832 -23.06356,-19.5796 -22.11604,-39.2568 0.38929,-8.0843 0.96476,-10.7428 3.49672,-16.1535 7.05428,-15.0746 21.83012,-22.3376 37.35316,-18.3608 10.68833,2.7382 19.75162,11.2846 21.53987,20.3115 L 485.25,1554 h -4.54745 c -4.29376,0 -4.61067,-0.1916 -5.68078,-3.434 -1.45076,-4.3959 -7.7861,-10.1291 -12.70099,-11.4939 -14.12777,-3.923 -27.23509,4.5642 -30.37005,19.6652 -3.27721,15.7863 2.48139,31.2426 13.54927,36.3668 5.04813,2.3372 14.44144,2.4791 18.79966,0.2839 4.74093,-2.3879 9.51587,-7.299 10.75906,-11.0659 1.022,-3.0967 1.3964,-3.3221 5.51883,-3.3221 3.54891,0 4.42052,0.3457 4.41268,1.75 -0.0174,3.1214 -4.65819,11.6674 -8.11777,14.9488 -7.74118,7.3425 -22.14609,10.2247 -32.54001,6.5108 z m 253.84087,0.3716 c -15.42611,-5.0466 -24.50009,-21.3573 -22.83563,-41.0478 0.8582,-10.1526 3.82774,-17.4591 9.7128,-23.8983 8.08556,-8.8469 19.29185,-12.2002 30.86395,-9.2355 11.66305,2.9879 18.98603,9.9295 22.52344,21.3504 0.65683,2.1206 0.41702,2.25 -4.17123,2.25 -4.76324,0 -4.91421,-0.095 -7.00745,-4.4034 -6.9314,-14.2669 -28.08171,-15.4356 -37.28421,-2.0602 -7.7794,11.3069 -7.63272,30.2154 0.31504,40.6122 4.54104,5.9403 10.5121,8.8514 18.15536,8.8514 11.05417,0 19.94562,-7.0407 21.25919,-16.8342 L 730.26334,1576 H 720.63167 711 v -4 -4 h 14.12232 14.12232 l -0.42074,8.75 c -0.35013,7.2816 -0.9075,9.6434 -3.32128,14.0735 -3.14758,5.777 -8.1335,10.2887 -14.14673,12.8012 -5.29375,2.2118 -17.77148,2.7267 -23.18257,0.9565 z m 294.15086,0.039 c -9.20161,-3.0091 -15.71139,-8.9012 -20.02004,-18.1204 -2.62069,-5.6075 -2.80414,-6.8505 -2.80414,-19 0,-12.1547 0.18254,-13.3901 2.80738,-19 3.59269,-7.6784 11.01176,-14.7584 17.98605,-17.164 15.69617,-5.414 32.66207,1.1296 39.31637,15.164 3.3036,6.9677 3.1554,7.5 -2.0895,7.5 -4.1669,0 -4.6143,-0.2618 -6.4084,-3.75 -7.1859,-13.9713 -24.34959,-16.5057 -35.30448,-5.213 -5.62603,5.7995 -7.80742,12.0756 -7.80742,22.463 0,18.0743 9.3089,29.4206 24.1849,29.478 7.2081,0.028 10.3733,-1.182 15.0954,-5.7701 3.238,-3.1461 6.7197,-10.6017 6.7197,-14.3894 0,-0.4502 -4.5,-0.8185 -10,-0.8185 h -10 v -4 -4 h 14.6285 14.6285 l -0.4691,7.75 c -0.8178,13.5124 -6.5747,22.6243 -17.2879,27.3628 -6.167,2.7278 -17.24175,3.4482 -23.17582,1.5076 z m 75.00832,-0.4108 c -15.0658,-5.3832 -23.0636,-19.5796 -22.1161,-39.2568 0.3889,-8.0765 0.9657,-10.7447 3.4872,-16.1331 5.8802,-12.5658 16.0093,-19.1975 29.2886,-19.1759 11.7175,0.019 20.195,4.4115 26.3178,13.6359 5.3261,8.0242 7.0228,15.1329 6.487,27.18 -0.5172,11.6281 -3.0086,18.4481 -9.2716,25.3805 -7.9585,8.8091 -22.7974,12.4412 -34.1929,8.3694 z m 20.2233,-9.0957 c 5.5755,-2.5325 11.1753,-9.381 13.1087,-16.0319 2.3572,-8.1082 1.4332,-20.9822 -1.9907,-27.7391 -10.5776,-20.8737 -38.8471,-16.0928 -43.7231,7.3944 -2.398,11.5512 0.4808,24.842 6.8529,31.6388 6.0102,6.4108 17.4396,8.5135 25.7522,4.7378 z m 458.5837,9.7945 c -8.6604,-2.636 -14.836,-9.2265 -15.8701,-16.9365 L 1529.7367,1584 h 4.4733 c 4.321,0 4.5126,0.1308 5.6231,3.8372 1.3721,4.5797 3.7086,6.8801 8.8507,8.714 7.7863,2.7769 16.3887,1.2422 22.0337,-3.9312 2.8799,-2.6391 3.5486,-3.9894 3.6365,-7.343 0.1838,-7.0112 -3.3033,-9.5655 -19.6629,-14.4024 -15.8373,-4.6825 -20.8956,-8.4136 -22.7892,-16.8097 -1.0513,-4.6612 0.5809,-11.698 3.6452,-15.7155 6.6206,-8.6801 23.3868,-11.5552 34.8025,-5.9679 6.4904,3.1767 11.6504,9.738 11.6504,14.8143 0,2.6568 -0.2365,2.8042 -4.5,2.8042 -3.7249,0 -4.5,-0.3213 -4.5,-1.8651 0,-2.7495 -3.8637,-7.18 -7.6358,-8.7561 -5.1243,-2.1411 -14.2121,-1.7688 -18.3465,0.7515 -4.8567,2.9607 -5.9493,4.7253 -5.9859,9.6674 -0.052,7.0115 2.6864,8.8256 22.0331,14.5966 4.7107,1.4052 10.4826,3.9441 12.8265,5.642 9.2874,6.7277 10.5601,18.8241 2.8987,27.5499 -5.095,5.8029 -9.9764,7.7431 -20.2901,8.0645 -4.95,0.1543 -10.5122,-0.1798 -12.3605,-0.7423 z m 72.3596,-0.231 c -15.743,-5.1911 -24.8353,-21.3425 -23.1614,-41.144 1.2281,-14.5284 8.1327,-25.6809 19.2738,-31.1318 6.8998,-3.3757 17.1373,-3.8104 25.0951,-1.0656 27.4535,9.4694 29.3943,57.7881 2.866,71.3571 -5.9911,3.0645 -17.8365,4.0408 -24.0735,1.9843 z m 22.5386,-11.3456 c 2.8496,-1.9692 5.6281,-5.1254 7.4685,-8.4838 2.5731,-4.6953 2.9765,-6.5685 3.3049,-15.348 0.3134,-8.3751 0.028,-10.9191 -1.7554,-15.6567 -5.1268,-13.618 -19.3071,-19.5089 -31.8799,-13.2436 -11.8006,5.8805 -16.9847,22.7711 -12.1616,39.625 1.541,5.3852 6.7981,11.7559 11.9858,14.5249 3.7834,2.0194 5.6148,2.3474 11.5,2.06 5.8983,-0.2881 7.7142,-0.8355 11.5377,-3.4778 z M 352.26146,1603.75 c 0.26149,-0.6875 6.12341,-16.775 13.02649,-35.75 6.90308,-18.975 12.86042,-35.2875 13.23854,-36.25 0.53227,-1.3549 1.86424,-1.75 5.89944,-1.75 h 5.21195 l 13.16198,35.8685 c 7.23909,19.7277 13.44371,36.6027 13.78805,37.5 0.52789,1.3757 -0.16419,1.6315 -4.41353,1.6315 -4.35346,0 -5.13432,-0.3063 -5.7353,-2.25 -0.38263,-1.2375 -2.03456,-5.9737 -3.67096,-10.5249 l -2.97526,-8.2748 -15.5642,0.2748 -15.5642,0.2749 -3.41556,10.25 -3.41557,10.25 h -5.02365 c -3.60583,0 -4.88947,-0.3528 -4.54822,-1.25 z m 38.7785,-45 c -3.18161,-9.4875 -5.97724,-17.8802 -6.21252,-18.6505 -0.23528,-0.7703 -2.96053,6.2047 -6.0561,15.5 -3.09558,9.2953 -5.93365,17.688 -6.30682,18.6505 -0.62407,1.6096 0.32585,1.75 11.84084,1.75 h 12.51933 z m 108.19787,9 0.26217,-37.25 4.75,-0.3048 4.75,-0.3048 V 1546.4452 1563 h 19.5 19.5 v -16.5548 -16.5548 l 4.75,0.3048 4.75,0.3048 0.26217,37.25 0.26217,37.25 H 553.01217 548 v -17 -17 H 528.5 509 v 17 17 h -5.01217 -5.01217 z M 575,1567.5 V 1530 h 4.5 4.5 v 37.5 37.5 h -4.5 -4.5 z m 27,0 V 1530 l 5.25,0.013 5.25,0.013 13.49585,21.2369 c 7.42272,11.6803 16.19772,25.7369 19.5,31.2369 l 6.00415,10 v -31 -31 h 4.5 4.5 l 0.26217,37.25 0.26217,37.25 -5.76217,-0.011 -5.76217,-0.011 -15.66268,-24.7394 c -8.61447,-13.6067 -17.29853,-27.552 -19.2979,-30.9895 -1.99938,-3.4375 -3.72617,-6.2503 -3.83732,-6.2507 -0.11116,-3e-4 -0.0712,13.9497 0.0888,31 L 611.08186,1605 H 606.54093 602 Z m 193.62335,35.75 C 793.72913,1596.7683 776,1531.0926 776,1530.5573 c 0,-0.3668 2.12271,-0.5297 4.71713,-0.3621 l 4.71712,0.3048 8.17535,32.3704 8.17534,32.3703 1.65969,-7.3703 c 2.21536,-9.838 14.43152,-55.861 15.12563,-56.9841 0.30128,-0.4875 2.75387,-0.8863 5.45021,-0.8863 4.8238,0 4.91819,0.06 5.88445,3.75 5.09501,19.4565 14.0804,54.5311 14.75185,57.5842 0.76724,3.4886 1.49615,1.2357 8.08859,-25 C 863.01678,1525.4573 861.29122,1530 866.547,1530 c 2.70192,0 4.453,0.4545 4.453,1.1557 0,1.1269 -17.06581,64.1325 -19.12129,70.5943 -0.99882,3.14 -1.21736,3.25 -6.45626,3.25 -2.98235,0 -5.42245,-0.182 -5.42245,-0.4045 0,-0.2225 -3.09578,-11.81 -6.87952,-25.75 -3.78373,-13.94 -7.47995,-28.043 -8.21382,-31.3399 l -1.33429,-5.9943 -0.86457,3.9943 c -1.08251,5.0013 -14.5737,55.9814 -15.35022,58.0049 -0.88576,2.3083 -11.04947,2.0826 -11.73423,-0.2605 z M 908,1601.393 c 0,-3.8741 -0.76151,-2.6797 27.18729,-42.6439 7.59699,-10.863 13.81317,-19.863 13.81372,-20 5.6e-4,-0.137 -9.22444,-0.1034 -20.5,0.075 L 908,1539.1474 V 1534.5737 1530 h 26 26 v 3.944 c 0,3.4869 -2.04503,6.8768 -17.64585,29.25 -9.70521,13.9183 -18.93021,26.9458 -20.5,28.9499 -1.56978,2.0042 -2.85415,3.9167 -2.85415,4.25 0,0.3334 9.45,0.6061 21,0.6061 h 21 v 4 4 H 934.5 908 Z m 218,-33.922 v -37.7307 l 16.25,0.5112 c 17.7571,0.5587 21.9849,1.542 29.0878,6.7655 9.3911,6.9064 13.0867,16.6413 12.4724,32.8551 -0.6271,16.5538 -5.6183,25.4458 -17.5934,31.343 -6.6113,3.2558 -6.8188,3.288 -23.4436,3.6357 L 1126,1605.2017 Z m 34.5,27.1327 c 9.7083,-4.1383 14.5,-13.0486 14.5,-26.9631 0,-10.5984 -2.0658,-16.7609 -7.4062,-22.0933 -5.2202,-5.2123 -9.7996,-6.5473 -22.4598,-6.5473 H 1135 v 29.1285 29.1284 l 10.75,-0.4741 c 6.9504,-0.3065 12.1638,-1.0767 14.75,-2.1791 z m 35.5,6.941 c 0,-2.8589 3.2184,-8.0796 18.6485,-30.25 10.2567,-14.7371 19.4817,-27.8679 20.5,-29.1796 1.0183,-1.3116 1.852,-2.6616 1.8525,-3 6e-4,-0.3383 -9.2244,-0.4694 -20.5,-0.2914 l -20.501,0.3237 v -4.5903 -4.5903 l 26.25,0.2666 26.25,0.2666 0.2987,3.0528 c 0.2499,2.5553 -2.5882,7.1998 -17.4153,28.5 -9.7426,13.996 -19.2514,27.4722 -21.1307,29.9472 l -3.4168,4.5 21.0821,0.2699 21.082,0.2699 v 3.9801 3.9801 h -26.5 -26.5 z m 67.2378,-33.7947 0.2622,-37.25 h 4.5 4.5 l 0.2622,37.25 0.2621,37.25 H 1268 1262.9757 Z M 1290,1567.5 V 1530 h 23 23 v 4.5 4.5 h -18.5 -18.5 v 12 12 h 17 17 v 3.9758 3.9758 l -16.75,0.2742 -16.75,0.2742 v 12.5 12.5 l 18.25,0.2726 18.25,0.2725 v 3.9775 3.9774 h -23 -23 z m 86,34.2151 c 0,-3.0389 9.0068,-16.6477 40.7073,-61.5067 1.1271,-1.5951 -0.1665,-1.7084 -19.5,-1.7084 H 1376.5 v -4 -4 l 26.25,-0.2666 26.25,-0.2666 v 3.5864 c 0,3.0302 -2.856,7.6786 -18.4137,29.9702 -10.1276,14.5111 -19.631,27.9797 -21.1187,29.9302 l -2.705,3.5464 H 1407.8813 1429 v 4 4 h -26.5 -26.5 z m 67.2378,-33.9651 0.2622,-37.25 h 23 23 v 4 4 l -18.25,0.2726 -18.25,0.2725 V 1551.0226 1563 h 17 17 v 4 4 h -17 -17 v 13 13 h 18.5 18.5 v 4 4 h -23.5122 -23.5121 z m 233,0 0.2622,-37.25 17,0.062 c 15.2494,0.056 17.4119,0.2781 21,2.1584 13.5685,7.1104 15.5862,24.0422 3.6954,31.0107 l -4.565,2.6753 3.1784,0.8236 c 4.4663,1.1573 9.8905,6.9392 11.2514,11.9934 3.1069,11.5379 -3.3412,21.9863 -15.2662,24.7369 -2.3617,0.5448 -11.612,1.0015 -20.5562,1.015 l -16.2621,0.024 z m 37.591,26.8709 c 3.9816,-2.0977 6.6227,-7.6134 5.7455,-11.9992 -1.7192,-8.5963 -7.5676,-11.5686 -22.8243,-11.5997 L 1686,1571 v 13.1207 13.1207 l 12.25,-0.4334 c 9.0937,-0.3217 13.1077,-0.8852 15.5788,-2.1871 z m -4.3186,-33.0607 c 6.3848,-2.6678 9.1711,-10.4082 5.9729,-16.5929 -2.4952,-4.8252 -6.0232,-5.9673 -18.4334,-5.9673 H 1686 v 12 12 h 10.0321 c 6.4689,0 11.2561,-0.5114 13.4781,-1.4398 z m -417.3275,-126.2706 c 0.2128,-1.1049 2.7059,-2.5257 7.0429,-4.0136 13.2211,-4.5356 26.1465,-14.0579 32.2656,-23.7704 6.7898,-10.7772 9.7175,-21.9017 11.4363,-43.4555 1.4625,-18.3403 1.5047,-701.11128 0.044,-716.62642 -2.4335,-25.85291 -8.9133,-40.11228 -22.4489,-49.40071 C 1316.2503,595.091 1303.1896,590 1299.9404,590 1298.5373,590 1298,589.30774 1298,587.5 V 585 h 55 55 v 31.5 c 0,20.33333 0.3545,31.5 1,31.5 0.55,0 1,-1.01267 1,-2.25037 0,-1.23771 0.6821,-5.40021 1.5158,-9.25 1.7103,-7.89764 3.9443,-19.92746 6.0355,-32.49963 3.2811,-19.72675 0.9158,-47.80212 -5.6632,-67.2191 -6.1743,-18.22255 -9.5774,-22.60955 -23.0229,-29.67956 -37.0552,-19.48462 -50.1901,-40.6218 -54.4366,-87.60134 -0.348,-3.85 -1.2989,-10.15 -2.113,-14 -0.8142,-3.85 -1.7161,-8.45041 -2.0042,-10.22313 l -0.5239,-3.22312 6.3562,2.49922 c 18.4787,7.26562 38.152,19.09434 48.3646,29.07952 8.8038,8.60781 12.9226,14.0161 17.8559,23.44609 9.2127,17.61044 12.1058,34.16241 9.7133,55.57173 -1.3036,11.66534 -1.3097,11.62542 3.9559,25.84969 4.3182,11.66484 7.3733,25.10744 8.5225,37.5 0.9836,10.60623 1.8224,12.4204 3.1907,6.90074 0.6,-2.42041 1.5753,-6.87574 2.1672,-9.90074 1.3304,-6.79872 5.0372,-24.27909 6.1497,-29 0.4536,-1.925 1.4839,-6.65 2.2896,-10.5 3.1065,-14.84448 15.5583,-66.2626 19.2524,-79.5 7.8854,-28.25645 8.5551,-33.76527 5.7747,-47.5 -2.049,-10.12164 -2.312,-33.69936 -0.4685,-42 6.3448,-28.56758 21.5861,-51.12371 48.0973,-71.18031 13.6956,-10.36122 51.2072,-32.43685 52.6559,-30.98811 0.2849,0.28485 -1.5177,6.51427 -4.0056,13.84316 -2.488,7.32889 -5.2586,17.37526 -6.157,22.32526 -4.0391,22.25417 -7.9971,38.73373 -11.4679,47.74718 -10.2082,26.51039 -22.727,42.07732 -48.4992,60.30812 -3.8306,2.70972 -9.9781,7.8558 -13.6611,11.43573 -6.586,6.40168 -6.755,6.69854 -10.2528,18.00897 -2.9795,9.63466 -9.9374,35.95687 -11.8951,45 -0.2976,1.375 -2.3335,9.7 -4.5241,18.5 -8.9261,35.85772 -18.3928,81.26413 -17.108,82.05813 0.4222,0.26097 0.971,0.12965 1.2196,-0.29182 0.2485,-0.42147 2.3736,-4.36631 4.7224,-8.76631 10.038,-18.80409 25.7571,-40.48547 44.0742,-60.79184 0.889,-0.98551 3.4661,-6.61051 5.7269,-12.5 12.0037,-31.2702 30.4653,-48.49248 60.5787,-56.51201 10.8006,-2.87632 39.6629,-3.07397 52.0841,-0.35669 11.7251,2.56502 15.5031,3.65126 15.4742,4.44908 -0.014,0.3913 -2.1517,2.16447 -4.75,3.94038 -6.4247,4.39118 -10.5434,8.41269 -14.3764,14.03729 -5.7973,8.50716 -17.396,22.62202 -23.055,28.05652 -8.853,8.50179 -16.8318,13.32037 -29.3747,17.73992 -7.5295,2.65308 -8.8788,2.79925 -27.4934,2.97847 -21.0876,0.20303 -24.6058,0.82269 -31.5328,5.55384 -11.394,7.78214 -40.7419,51.0026 -49.2476,72.52651 -1.0604,2.68319 -3.2567,7.80353 -4.8809,11.37853 -5.458,12.01413 -11.6918,30.21479 -11.0293,32.2022 0.2187,0.6563 1.7859,-0.80821 3.4826,-3.25446 6.3362,-9.13547 17.1062,-17.85243 25.2509,-20.43745 1.2686,-0.40264 5.9573,-3.05833 10.4195,-5.90155 11.6501,-7.42335 17.4924,-9.7703 28.7834,-11.56276 6.7018,-1.06393 11.9233,-0.53324 21.3295,2.16783 15.4537,4.43767 30.2261,17.37715 46.1468,40.42119 l 6.1468,8.89703 -10.1468,0.10015 c -5.5807,0.0551 -17.3468,0.26213 -26.1468,0.46011 -17.5441,0.39469 -20.7926,-0.22611 -32.9561,-6.29809 -7.3161,-3.65219 -8.9465,-4.90856 -19.1872,-14.78555 -7.0664,-6.81538 -8.7509,-7.94522 -12.7372,-8.54301 -8.649,-1.29698 -16.1193,2.10681 -24.6588,11.23553 -19.2129,20.53862 -28.702,49.5192 -30.8763,94.29883 -1.28,26.36096 -1.3626,634.2141 -0.089,654.4565 1.8058,28.7005 5.168,38.8751 14.5045,43.8935 l 4,2.15 h 99 c 90.328,0 99.8322,-0.1545 108.5,-1.764 45.6766,-8.4814 93.4488,-34.7711 131.501,-72.367 10.7647,-10.6356 27.7547,-30.1658 34.4658,-39.619 3.0286,-4.2659 6.0332,-6.1961 6.0332,-3.8757 0,1.153 -2.545,8.3304 -4.3957,12.3967 -0.8083,1.776 -3.5387,8.3465 -6.0676,14.6011 -2.5289,6.2547 -5.442,13.2297 -6.4735,15.5 -1.0315,2.2704 -3.5235,8.1779 -5.5378,13.1279 -2.0142,4.95 -4.4788,10.8 -5.477,13 -0.9981,2.2 -4.8218,11.425 -8.4971,20.5 -3.6753,9.075 -7.481,18.3 -8.4573,20.5 -2.3337,5.2593 -11.7672,28.5083 -12.4771,30.75 -0.5256,1.6599 -12.3178,1.75 -229.1588,1.75 -215.1646,0 -228.5854,-0.1006 -228.2754,-1.7104 z M 1502,603.77321 c -6.1969,-2.72668 -9.9214,-3.73836 -17.9245,-4.86882 -9.5123,-1.34363 -18.0755,-0.59634 -18.0755,1.57741 0,1.04903 2.91,1.4709 12.75,1.84839 7.0125,0.26903 14.775,0.92346 17.25,1.45431 2.475,0.53084 5.4,0.99297 6.5,1.02695 1.664,0.0514 1.58,-0.12301 -0.5,-1.03824 z m -96.3177,-96.0841 c -0.8183,-1.75401 -2.5217,-5.43911 -3.7852,-8.18911 -1.2636,-2.75 -4.4573,-8.77707 -7.0972,-13.3935 -2.64,-4.61642 -4.7999,-8.53394 -4.7999,-8.70559 0,-0.17165 -1.6875,-2.71276 -3.75,-5.64689 -11.0415,-15.70778 -11.5935,-14.04386 -1.0994,3.3142 8.5733,14.18089 13.1236,22.52541 16.3221,29.93178 1.0688,2.475 2.6354,5.60244 3.4813,6.94986 1.307,2.08209 1.5888,2.18554 1.877,0.68911 0.1865,-0.96841 -0.3304,-3.19584 -1.1487,-4.94986 z m 94.9356,-11.83352 c 9.9591,-7.76351 24.2978,-17.11909 35.8245,-23.37443 4.9183,-2.66909 8.3888,-5.03743 7.7121,-5.26299 -2.0497,-0.68323 -18.9833,7.64598 -29.0429,14.28541 -8.2612,5.45256 -23.3113,17.59561 -23.8644,19.25479 -0.8061,2.41839 1.5817,1.1691 9.3707,-4.90278 z M 1474.0057,405.25 c 7.4243,-19.86143 14.17,-35.57637 20.7114,-48.25 4.1162,-7.975 7.8888,-14.9275 8.3835,-15.45 0.4947,-0.5225 0.8807,-1.6475 0.8578,-2.5 -0.1635,-6.08539 -21.7024,32.98685 -26.9841,48.95 -0.455,1.375 -2.2103,6.3213 -3.9008,10.99178 -1.6904,4.67048 -3.0735,9.28298 -3.0735,10.25 0,3.52258 1.9072,1.62196 4.0057,-3.99178 z M 220.17668,1429.3445 c 0.19385,-0.9926 2.51531,-2.4002 5.79736,-3.5153 6.74127,-2.2902 16.20032,-7.1197 21.52596,-10.9903 12.5532,-9.1237 27.83089,-27.786 36.29746,-44.3389 3.58299,-7.0051 9.20254,-19.2938 9.20254,-20.1239 0,-0.3156 0.62119,-1.9918 1.38043,-3.725 13.31477,-30.3938 22.61381,-77.8625 19.66408,-100.3789 -2.58024,-19.6959 -8.96886,-38.67 -15.29893,-45.4374 -3.40589,-3.6413 -7.97079,-5.8212 -23.72137,-11.328 -34.63391,-12.109 -49.75319,-24.3669 -63.97859,-51.8704 -2.59903,-5.025 -5.97676,-12.5114 -7.50608,-16.6364 -3.41448,-9.2098 -14.85604,-32.3229 -18.19221,-36.75 -1.34701,-1.7875 -2.08871,-3.2887 -1.64822,-3.3359 0.44049,-0.047 5.75089,-0.024 11.80089,0.051 46.0469,0.5725 84.06215,22.0632 101.77472,57.5351 7.74484,15.5101 9.73847,24.3628 10.61205,47.1228 0.37504,9.7712 1.1236,17.7141 1.74349,18.5 1.70085,2.1564 8.21423,23.5178 9.87223,32.3772 0.82344,4.4 1.49724,11.4875 1.49734,15.75 2.5e-4,11.1755 1.66254,10.4944 5.49194,-2.25 1.58747,-5.2832 6.05456,-18.2815 10.99736,-32 1.28808,-3.575 4.66005,-13.025 7.49328,-21 7.79491,-21.9412 10.09613,-28.307 11.02578,-30.5 0.4663,-1.1 2.03973,-5.15 3.4965,-9 1.45677,-3.85 4.91238,-12.85 7.67912,-20 2.76675,-7.15 6.151,-15.925 7.52056,-19.5 1.36956,-3.575 2.8853,-7.4 3.36831,-8.5 0.48301,-1.1 3.86263,-9.425 7.51025,-18.5 12.59922,-31.3459 24.70445,-60.8293 26.98683,-65.729 0.82727,-1.7759 2.1142,-4.9259 2.85986,-7 0.74565,-2.074 8.87372,-21.771 18.06238,-43.771 9.18866,-22 18.72519,-44.95 21.19228,-51 2.4671,-6.05 5.08433,-12.35 5.81608,-14 0.73175,-1.65 3.1869,-7.5 5.4559,-13 2.26899,-5.5 4.54465,-10.9 5.05701,-12 0.51237,-1.1 1.87869,-4.46721 3.03628,-7.4827 1.15759,-3.01548 3.24668,-7.96548 4.64242,-11 1.39574,-3.03451 4.0099,-9.3423 5.80924,-14.0173 3.55563,-9.23813 39.47863,-95.85771 42.58987,-102.69514 1.04991,-2.30732 1.90892,-4.43148 1.90892,-4.72036 0,-0.28888 1.08362,-2.90107 2.40805,-5.80486 1.32443,-2.9038 4.0552,-9.32964 6.06839,-14.27964 2.01319,-4.95 4.52957,-10.9076 5.59195,-13.2391 1.06239,-2.33151 1.93161,-4.4937 1.93161,-4.80487 0,-0.31116 0.85569,-2.45357 1.90153,-4.76089 2.28719,-5.046 17.5112,-41.63012 33.58023,-80.69514 6.44776,-15.675 12.51839,-30.3 13.49027,-32.5 0.97189,-2.2 2.08896,-5.03727 2.48238,-6.30505 0.39342,-1.26777 1.19896,-2.14383 1.79008,-1.94679 0.59112,0.19704 8.39824,19.23432 17.34914,42.30505 8.9509,23.07073 21.30387,54.77179 27.45103,70.44679 6.14717,15.675 12.22836,31.2 13.51376,34.5 17.53633,45.02089 21.57204,55.2992 22.38068,57 0.52299,1.1 5.52518,13.7 11.11597,28 5.59079,14.3 12.31447,31.4 14.94151,38 7.45636,18.73282 20.26582,51.42162 27.03841,69 3.39045,8.8 6.96009,17.8 7.93252,20 0.97243,2.2 3.67291,8.95 6.00107,15 2.32816,6.05 8.04718,20.675 12.70893,32.5 9.05734,22.9749 23.19617,59.0734 26.55895,67.809 1.12403,2.9199 2.99317,5.9726 4.15362,6.7837 1.16046,0.8112 8.40992,5.6232 16.10992,10.6934 20.91504,13.7718 40.21167,28.7367 54.37449,42.1685 42.48807,40.2948 66.21276,75.5856 88.09689,131.0454 4.33004,10.9734 4.29105,10.8543 9.49779,29 1.89381,6.6 3.89774,14.061 4.45318,16.5799 0.55544,2.519 1.29828,5.3315 1.65076,6.25 0.46957,1.2237 0.0957,1.6701 -1.39873,1.6701 -1.23849,0 -2.31797,-0.8838 -2.74831,-2.25 -3.0013,-9.5286 -21.21663,-42.5669 -33.20796,-60.2314 -29.95803,-44.1314 -71.82959,-84.2881 -121.71811,-116.7333 -19.02284,-12.3715 -59.03014,-34.5885 -60.19244,-33.4262 -0.24054,0.2405 -1.57378,3.7456 -2.96275,7.7891 -7.03938,20.4925 -9.78645,32.1232 -12.89747,54.606 -1.34074,9.6893 -1.58004,16.5965 -1.14326,33 0.30382,11.4102 1.04455,22.9958 1.64606,25.7458 0.60151,2.75 1.80413,8.6 2.67249,13 5.77614,29.2679 21.30978,63.0265 41.18234,89.5 13.78362,18.362 43.53852,44.4722 65.99288,57.9093 10.37103,6.2063 31.9288,16.7595 41.70215,20.4146 47.39576,17.7253 100.32454,21.0048 146.881,9.1009 60.3357,-15.4271 108.0715,-53.2614 135.0515,-107.0385 20.0586,-39.9812 29.0446,-83.1214 25.7229,-123.4911 -1.3244,-16.0953 -1.7004,-18.3805 -6.2348,-37.8952 -9.1829,-39.5203 -32.622,-79.612 -66.0009,-112.8917 C 1092.92,993.17693 1055.7818,963.89881 1007.3287,930.5 967.99465,903.387 930.72903,875.97087 915.42398,862.8862 870.069,824.11105 848.18591,780.27958 850.328,732.5 c 0.71285,-15.90012 2.73138,-27.51404 7.09949,-40.84795 15.01197,-45.82491 50.864,-81.78697 99.07251,-99.37655 17.27869,-6.30438 20.18342,-7.01465 42,-10.27003 26.4643,-3.94889 58.1046,-1.92774 87,5.55745 25.643,6.64267 45.229,15.16165 72.3789,31.48135 l 14.0672,8.45573 0.027,51.19098 c 0.015,28.72076 -0.3623,51.43153 -0.8598,51.73899 -1.4943,0.92355 -2.697,-1.60159 -4.4913,-9.42997 -2.2058,-9.62344 -8.8298,-29.14537 -12.82,-37.78221 -7.5787,-16.40437 -19.712,-33.15138 -33.4123,-46.11733 -19.3079,-18.27293 -42.8744,-30.47066 -68.9895,-35.70809 -13.5254,-2.71256 -43.5671,-2.48087 -56.4002,0.43497 -18.97085,4.3104 -34.79052,10.90815 -49.25973,20.54424 -20.878,13.90416 -37.93847,38.00872 -45.38814,64.12842 -2.62664,9.2094 -2.84948,11.30449 -2.81856,26.5 0.0407,20.0209 1.87654,28.38009 9.55327,43.5 12.67975,24.97375 29.01618,41.83172 66.38084,68.5 14.16095,10.1071 17.96098,12.678 65.53232,44.33574 49.1532,32.71047 73.8714,50.51122 97.7683,70.4078 61.0021,50.79024 94.1367,103.76376 107.1198,171.25646 11.7021,60.833 -2.8056,130.2956 -39.5582,189.4035 -30.4241,48.9301 -72.4798,85.2586 -123.43,106.6211 -35.5083,14.8881 -76.845,22.9754 -117.43359,22.9754 -59.55017,0 -119.80469,-17.6147 -165.96631,-48.5183 -24.19084,-16.1949 -42.14848,-32.8559 -56.87309,-52.7665 -14.81066,-20.027 -27.28317,-44.9597 -33.62427,-67.2152 -5.72009,-20.0759 -7.14355,-30.0446 -7.71118,-54.0025 -0.74659,-31.5111 1.89042,-48.4121 12.40376,-79.4975 4.82053,-14.2532 5.72199,-16.3591 14.05773,-32.8407 6.68646,-13.2206 7.63957,-16.1593 5.241,-16.1593 -0.4884,0 -4.17434,-1.5181 -8.19098,-3.3737 -7.75163,-3.5809 -10.3281,-4.6281 -23.80297,-9.6752 -10.84704,-4.0628 -20.67972,-7.194 -34.5,-10.9865 -6.05,-1.6601 -12.575,-3.4548 -14.5,-3.9882 -4.10609,-1.1377 -25.65173,-5.3671 -35,-6.8706 -43.05345,-6.9242 -87.21073,-4.0447 -123.5,8.0534 -12.95895,4.3202 -33.50108,14.7557 -44.4559,22.5838 -17.35685,12.4028 -37.02255,34.1367 -49.54647,54.757 -6.17388,10.1651 -20.0921,37.2564 -25.17392,49 -4.3006,9.9383 -13.63791,33.2053 -17.05572,42.5 -10.45911,28.4435 -28.44502,84.9331 -29.76974,93.5 l -0.61854,4 2.31015,-2.7406 c 1.27058,-1.5074 4.72323,-7.3574 7.67256,-13 6.42716,-12.2964 17.55801,-29.1359 27.42679,-41.4931 7.01924,-8.7892 11.45697,-13.6944 30.01773,-33.1803 8.1997,-8.6084 9.5168,-10.5737 15.39067,-22.9649 7.05891,-14.8912 10.81959,-20.6627 19.21774,-29.4934 13.98744,-14.7079 26.61511,-20.7052 50.88957,-24.1693 14.30194,-2.041 30.40866,-0.096 52.1366,6.2958 3.54284,1.0422 6.56766,2.3114 6.72183,2.8204 0.15417,0.509 -1.55673,1.7737 -3.80198,2.8105 -5.85176,2.7023 -14.66373,10.3385 -20.40715,17.6844 -12.57115,16.0785 -27.02911,29.0222 -37.89272,33.9239 -13.73057,6.1954 -18.18287,7.018 -42.5615,7.8642 -18.6168,0.6461 -20.95932,0.9281 -25.5,3.0701 -6.30814,2.9758 -28.75902,25.4323 -39.63797,39.6479 -9.24673,12.0828 -23.24859,33.3712 -22.46462,34.1551 0.3115,0.3115 2.26201,-0.607 4.33448,-2.0411 4.67724,-3.2367 11.48077,-5.6896 15.7811,-5.6896 1.79384,0 10.17477,-2.2944 18.62427,-5.0987 14.18077,-4.7064 16.10459,-5.0998 25.00489,-5.1131 13.01024,-0.019 20.81845,2.4153 31.35785,9.7784 12.03943,8.411 22.3014,21.7732 28.54008,37.1621 1.83475,4.5257 3.12124,8.4433 2.85887,8.7057 -0.26238,0.2624 -2.48447,-0.2289 -4.938,-1.0916 -2.82927,-0.9949 -10.49615,-1.8657 -20.96095,-2.3809 -17.76342,-0.8744 -20.44316,-1.5048 -32.87306,-7.7324 -9.02416,-4.5212 -14.76066,-9.4564 -20.75332,-17.8544 -6.23182,-8.7331 -11.16406,-11.5516 -20.21502,-11.5516 -5.58058,0 -8.10195,0.5786 -13.4801,3.093 -15.20434,7.1086 -30.14525,26.6009 -34.96289,45.6135 -6.28422,24.8004 -3.55996,44.8293 8.23212,60.5231 6.9205,9.2103 16.03716,15.1939 30.30227,19.8886 4.11686,1.3548 6.75,2.7747 6.75,3.6398 0,1.2119 -10.78929,1.4185 -74.07332,1.4185 -68.3989,0 -74.04856,-0.1268 -73.75,-1.6555 z m 189.44337,-131.8316 c -4.59359,-3.4781 -22.91675,-7.5057 -27.51191,-6.0472 -3.61462,1.1472 -2.31337,2.5343 2.37751,2.5343 4.48892,0 10.505,1.1704 18.01435,3.5045 2.2,0.6838 5.125,1.2858 6.5,1.3376 2.37258,0.089 2.40418,0.022 0.62005,-1.3292 z m 2.65229,-80.2986 c 9.56308,-8.5634 19.33007,-15.0381 37.72766,-25.0103 3.575,-1.9378 7.38763,-4.1264 8.47251,-4.8636 4.5223,-3.0731 -2.1003,-1.2532 -10.97251,3.0152 -13.17815,6.34 -40.40906,25.3591 -41.91055,29.2719 -1.00507,2.6192 2.46059,1.3677 6.68289,-2.4132 z M 305,1198.6638 c 0,-1.964 -12.1477,-20.7859 -19.42609,-30.0992 -7.36294,-9.4215 -23.94297,-27.1566 -26.8348,-28.7042 -1.84147,-0.9855 -1.89037,-0.9156 -0.61924,0.8855 0.75907,1.0756 4.92526,5.8452 9.25819,10.5991 10.873,11.9295 17.07854,19.9636 27.32869,35.3814 C 303.1537,1199.4319 305,1201.5731 305,1198.6638 Z m 123.2152,-136.4765 c 15.29845,-13.0998 40.47395,-27.6545 64.2848,-37.1649 4.4,-1.7574 8.9,-3.5743 10,-4.0374 6.02179,-2.5356 34.5587,-9.9593 45.5,-11.8366 20.74786,-3.5597 33.36681,-4.377 59.39837,-3.8467 33.05496,0.6733 43.74745,2.232 77.10163,11.2392 12.53012,3.3837 13.08125,3.4302 12.67401,1.0691 -0.26324,-1.5262 -12.72093,-33.31641 -16.10986,-41.11 -0.47832,-1.1 -2.00448,-4.925 -3.39146,-8.5 -1.38699,-3.575 -5.23236,-13.25 -8.54528,-21.5 -3.31291,-8.25 -8.56658,-21.525 -11.67482,-29.5 -8.64811,-22.18903 -24.40886,-62.22548 -25.48948,-64.75 -0.52971,-1.2375 -1.39437,-3.2625 -1.92147,-4.5 C 627.75545,842.38253 606,787.00991 606,786.55848 c 0,-0.27457 -1.05477,-2.87505 -2.34394,-5.77884 -1.28916,-2.9038 -2.90957,-6.85464 -3.60092,-8.77964 -0.69134,-1.925 -1.61559,-4.4 -2.0539,-5.5 -6.69093,-16.79199 -17.34435,-44.46466 -19.05649,-49.5 -1.21559,-3.575 -2.51939,-6.95 -2.89733,-7.5 -0.37794,-0.55 -1.28533,-2.89758 -2.01641,-5.21686 -0.73109,-2.31927 -1.71333,-3.97948 -2.18276,-3.68935 -1.24487,0.76937 -3.80124,6.6081 -11.34251,25.90621 -1.5045,3.85 -3.54511,8.82536 -4.53469,11.05635 -0.98958,2.23099 -4.3432,10.33099 -7.45249,18 -3.10929,7.66901 -6.261,15.29365 -7.0038,16.94365 -0.74281,1.65 -2.12759,5.025 -3.0773,7.5 -2.37289,6.18388 -18.82603,46.68779 -22.95094,56.5 -1.84969,4.4 -7.2776,17.675 -12.06201,29.5 -4.78442,11.825 -13.87185,34.1 -20.1943,49.5 -14.56172,35.46891 -25.32276,61.99985 -34.6791,85.5 -7.18835,18.0548 -19.82272,49.7437 -23.62303,59.25 -2.17737,5.4466 -1.36814,5.9235 3.28712,1.9373 z"
       id="path1" />
  </g>
</svg>
