<?xml version="1.0" encoding="UTF-8" standalone="no"?>
<!-- Created with Inkscape (http://www.inkscape.org/) -->

<svg
   version="1.1"
   id="svg1"
   width="2000"
   height="2000"
   viewBox="0 0 2000 2000"
   xmlns="http://www.w3.org/2000/svg"
   xmlns:svg="http://www.w3.org/2000/svg">
  <defs
     id="defs1" />
  <g
     id="g1">
    <path
       style="fill:#657840;fill-opacity:1"
       d="m 1292.4461,1456.9129 c -1.0019,-1.6213 0.3908,-2.5336 7.4945,-4.9089 3.5423,-1.1845 9.6173,-4.1897 13.5,-6.6781 20.0736,-12.8656 26.6959,-26.4732 29.506,-60.6304 1.4451,-17.5658 1.4692,-700.9313 0.025,-716.27182 -2.4534,-26.06415 -9.529,-41.42539 -23.0034,-49.94111 C 1315.8664,615.89017 1302.7773,611 1299.9404,611 1298.5373,611 1298,610.30774 1298,608.5 V 606 h 55 55 v 31.7 c 0,17.435 0.3808,31.2725 0.8462,30.75 0.4654,-0.5225 1.4112,-4.325 2.1018,-8.45 0.6906,-4.125 1.6225,-8.625 2.0708,-10 0.4483,-1.375 1.0472,-4.075 1.3309,-6 0.2837,-1.925 1.4437,-8.9 2.5778,-15.5 3.9631,-23.06532 2.0606,-49.76455 -5.0394,-70.7191 -6.1316,-18.09648 -9.6978,-22.83966 -21.9473,-29.19021 -19.7784,-10.25383 -34.2977,-22.83937 -42.2128,-36.59069 -7.227,-12.55599 -11.1536,-27.76112 -13.2994,-51.5 -0.348,-3.85 -1.2989,-10.15 -2.113,-14 -0.8142,-3.85 -1.7152,-8.44227 -2.0021,-10.20504 l -0.5218,-3.20504 6.8541,2.61862 c 18.1399,6.93029 38.4132,19.41974 49.563,30.53343 8.4016,8.37432 12.0259,13.28078 16.7722,22.70519 8.8926,17.65759 11.3361,32.08498 9.1121,53.80049 -1.294,12.63468 -1.2993,12.59831 3.9403,26.75235 4.3182,11.66484 7.3733,25.10744 8.5225,37.5 0.9836,10.60623 1.8224,12.4204 3.1907,6.90074 0.6,-2.42041 1.5753,-6.87574 2.1672,-9.90074 0.9934,-5.07674 4.1213,-19.98293 6.1902,-29.5 0.4782,-2.2 1.9513,-8.725 3.2736,-14.5 1.3222,-5.775 3.5638,-15.675 4.9814,-22 2.189,-9.76651 10.9669,-44.82118 13.6472,-54.5 7.7901,-28.13077 7.9286,-29.78688 4.5165,-54 -1.5833,-11.23557 -1.6782,-14.56782 -0.6991,-24.55139 2.3805,-24.27479 12.6479,-45.7423 30.8432,-64.48878 8.4369,-8.6925 11.5696,-11.37847 22.3332,-19.14866 14.2759,-10.3057 47.3972,-29.24727 48.7596,-27.88487 0.3051,0.30507 -1.0275,4.94645 -2.9613,10.31418 -4.4756,12.42284 -5.4718,15.93748 -7.3016,25.75952 -6.6259,35.56582 -10.4964,48.53097 -19.4618,65.19156 -8.188,15.21572 -18.4964,26.43993 -36.5545,39.80169 -6.5155,4.82107 -14.6443,11.51984 -18.0641,14.88616 -5.997,5.90334 -6.345,6.52878 -9.8019,17.62059 -5.2588,16.87308 -26.3751,102.61823 -28.5671,116 -0.5856,3.575 -2.1277,11.57188 -3.4268,17.77085 -1.2991,6.19896 -2.0013,11.4938 -1.5604,11.76631 0.4409,0.2725 1.005,0.15062 1.2536,-0.27085 0.2485,-0.42147 2.3736,-4.36631 4.7224,-8.76631 8.7231,-16.34089 24.2981,-38.39798 38.8368,-55 5.999,-6.8504 7.5854,-9.50885 11.0403,-18.5 15.1796,-39.50501 43.8973,-59.18393 86.1452,-59.0314 15.0409,0.0543 40.8455,4.11537 41.5834,6.54429 0.1649,0.54291 -1.4294,2.05364 -3.5428,3.35718 -6.0428,3.72701 -12.402,10.4382 -19.7848,20.88011 -8.8939,12.57904 -21.8867,26.17948 -29.6352,31.02123 -5.7084,3.56692 -13.2246,6.92349 -23.179,10.35121 -2.8182,0.97043 -9.6136,1.39631 -23,1.44146 -20.6321,0.0696 -23.9991,0.675 -31.231,5.61543 -11.4809,7.8432 -38.6532,48.06011 -49.4272,73.15583 -2.1639,5.04056 -4.6052,10.61751 -5.4249,12.39322 -4.3426,9.40714 -10.7685,28.71673 -10.1619,30.53637 0.2072,0.6218 1.7786,-0.87094 3.492,-3.31719 6.9452,-9.91632 15.8623,-17.34357 24.0775,-20.05485 1.935,-0.63858 7.1535,-3.5015 11.5968,-6.36204 15.2091,-9.79144 29.2916,-13.81066 40.6938,-11.61417 16.8815,3.25202 24.9273,7.72127 38.0845,21.15506 6.587,6.72541 22.7993,27.91677 22.801,29.80349 3e-4,0.34363 -4.3872,0.67053 -9.75,0.72645 -5.3628,0.0559 -17.1756,0.24467 -26.2506,0.41943 -15.8349,0.30493 -16.7874,0.21001 -23.6296,-2.3548 -11.1336,-4.17343 -15.9429,-7.31111 -26.501,-17.28971 -10.5837,-10.00283 -13.179,-11.22222 -21.1669,-9.94515 -5.9532,0.95176 -11.5226,4.52678 -18.0709,11.59974 -18.9658,20.48533 -28.382,49.44897 -30.5497,93.96881 -1.2876,26.44381 -1.3613,634.4424 -0.079,654 1.9241,29.3531 5.3194,39.2965 15.2765,44.7393 3.0137,1.6474 9.5927,1.7607 102.221,1.7607 90.2003,0 99.8073,-0.1557 108.0828,-1.7518 51.845,-9.999 101.2553,-38.8944 142.4172,-83.2862 3.575,-3.8555 7.4,-8.1344 8.5,-9.5087 1.1,-1.3744 4.2797,-5.1886 7.0659,-8.476 2.7862,-3.2875 6.575,-8.1148 8.4195,-10.7273 3.0104,-4.2639 6.0146,-6.1997 6.0146,-3.8757 0,1.153 -2.545,8.3304 -4.3957,12.3967 -0.8083,1.776 -3.5387,8.3465 -6.0676,14.6011 -2.5289,6.2547 -5.5479,13.4547 -6.7089,16 -1.161,2.5454 -7.24,17.0029 -13.5088,32.1279 -6.2689,15.125 -15.0828,36.3875 -19.5867,47.25 l -8.1888,19.75 h -227.7127 c -162.8971,0 -227.904,-0.3094 -228.3847,-1.0871 z M 1502,624.71143 c -10.6391,-5.43123 -37.2239,-7.9133 -35.7108,-3.33411 0.2333,0.70626 5.1632,1.36495 13.2909,1.77583 7.1059,0.35923 14.7199,1.09498 16.9199,1.635 2.2,0.54002 4.9,1.03083 6,1.09069 1.6917,0.0921 1.6147,-0.0879 -0.5,-1.16741 z m -95,-92.02428 c 0,-3.34352 -14.227,-30.65243 -20.9572,-40.22754 -9.1547,-13.02447 -11.6824,-14.22513 -4.0257,-1.9122 2.7199,4.37392 5.2551,8.62759 5.6339,9.45259 0.3788,0.825 2.085,3.75 3.7916,6.5 2.7701,4.46355 6.9628,12.72471 12.0537,23.75 1.7172,3.71875 3.5037,4.96147 3.5037,2.43715 z m 93.1478,-15.39141 c 4.0437,-3.13734 7.5772,-5.97575 7.8522,-6.30757 0.9003,-1.08636 24.3674,-15.49018 30,-18.41369 6.6671,-3.4604 8.0237,-4.57448 5.5703,-4.57448 -2.668,0 -20.5792,9.2328 -29.4369,15.17406 -11.1846,7.50197 -23.1334,17.30891 -23.1334,18.98662 0,1.74164 2.011,0.67216 9.1478,-4.86494 z M 1474.0057,426.25 c 7.6267,-20.40277 14.302,-35.81856 21.6897,-50.08971 4.6522,-8.98684 8.2507,-16.54749 7.9968,-16.80145 -1.9665,-1.96652 -21.8909,35.05246 -26.7179,49.64116 -0.455,1.375 -2.2103,6.3213 -3.9008,10.99178 -1.6904,4.67048 -3.0735,9.28298 -3.0735,10.25 0,3.52258 1.9072,1.62196 4.0057,-3.99178 z M 220.17668,1450.3445 c 0.19217,-0.984 2.47202,-2.3855 5.62039,-3.4551 12.7127,-4.319 21.22174,-9.9122 33.30017,-21.8894 16.0521,-15.9175 24.4967,-29.7931 36.21123,-59.5 13.68068,-34.6928 21.61598,-76.4439 18.73792,-98.5882 -2.48608,-19.1284 -9.06695,-38.4106 -15.43323,-45.2199 -3.13039,-3.3483 -9.60954,-6.4262 -23.69127,-11.2546 -33.90894,-11.6269 -49.73596,-24.4619 -63.87627,-51.8009 -2.59903,-5.025 -5.9765,-12.5114 -7.5055,-16.6364 -3.44084,-9.2829 -14.85295,-32.3834 -18.12484,-36.6885 -1.56736,-2.0623 -2.04267,-3.4238 -1.3457,-3.8545 1.55229,-0.9594 21.79992,0.401 32.93042,2.2125 47.57438,7.7427 81.73862,39.7065 89.60168,83.8305 0.7841,4.4 1.37921,13.175 1.32247,19.5 -0.0985,10.9845 0.49857,16.3158 2.07201,18.5 1.45302,2.017 8.05274,24.2329 9.50633,32 0.82344,4.4 1.49724,11.4875 1.49734,15.75 1e-4,4.6083 0.41424,7.75 1.02161,7.75 1.18071,0 1.65533,-1.1481 5.78735,-14 1.6799,-5.225 4.91536,-14.675 7.18991,-21 2.27455,-6.325 5.64386,-15.775 7.48736,-21 10.04671,-28.4753 13.61597,-38.3919 15.37335,-42.7123 3.06109,-7.5256 6.84507,-17.2565 14.11091,-36.2877 4.66763,-12.2258 6.43131,-16.6648 13.50846,-34 3.70491,-9.075 9.58375,-23.475 13.0641,-32 10.13567,-24.827 12.42805,-30.3763 13.42567,-32.5 0.51672,-1.1 3.0363,-7.175 5.59908,-13.5 5.51216,-13.6042 50.99812,-123.15087 52.94052,-127.5 0.73692,-1.65 5.02237,-12 9.52322,-23 10.25106,-25.05339 49.66127,-119.95825 51.49226,-124 0.74748,-1.65 3.22405,-7.5 5.5035,-13 2.27944,-5.5 5.00584,-11.9076 6.05866,-14.2391 1.05281,-2.33151 1.91421,-4.4937 1.91421,-4.80487 0,-0.31116 0.8597,-2.45357 1.91045,-4.76089 C 549.56924,716.85676 579,645.90809 579,645.33695 c 0,-0.25581 1.17239,-3.02377 2.60532,-6.15103 1.43293,-3.12725 3.9215,-9.06092 5.53016,-13.18592 1.60866,-4.125 3.31642,-8.4 3.79502,-9.5 0.4786,-1.1 1.75632,-4.025 2.83939,-6.5 1.08306,-2.475 2.2911,-5.53727 2.68452,-6.80505 0.39342,-1.26777 1.19896,-2.14383 1.79008,-1.94679 0.59112,0.19704 8.40052,19.23432 17.3542,42.30505 8.95369,23.07073 21.30831,54.77179 27.45472,70.44679 6.14641,15.675 12.22532,31.2 13.50869,34.5 14.91012,38.33903 21.58838,55.33359 22.39899,57 0.53509,1.1 5.74556,14.15 11.57882,29 5.83327,14.85 12.99687,33.075 15.91911,40.5 10.77429,27.3759 19.57073,49.91021 25.56843,65.5 3.38554,8.8 6.7773,17.35 7.53725,19 0.75994,1.65 5.41669,13.35 10.34833,26 4.93163,12.65 12.61302,32.225 17.06975,43.5 4.45673,11.275 9.92437,25.225 12.1503,31 9.05373,23.4892 6.54006,20.1065 22.86156,30.7655 69.11152,45.1345 113.68702,97.0779 141.79684,165.2345 7.18626,17.4242 8.76153,22.0497 14.13319,41.5 5.98656,21.6768 5.90462,21.3374 5.2979,21.9441 -1.25597,1.256 -3.13096,0.4151 -3.7777,-1.6941 -0.9358,-3.0519 -10.65373,-22.9497 -14.52965,-29.75 -1.72415,-3.025 -4.50749,-7.975 -6.18521,-11 -3.89776,-7.0279 -18.01373,-27.8713 -25.6134,-37.8204 -31.95677,-41.8361 -79.86111,-82.8674 -130.61661,-111.8765 -18.70726,-10.692 -37.56706,-20.5694 -38.15417,-19.9823 -1.7086,1.7086 -10.07378,29.3253 -12.32184,40.6792 -4.36717,22.0564 -5.31705,33.106 -4.71195,54.8118 0.3172,11.3785 1.06161,22.9382 1.65424,25.6882 0.59263,2.75 1.78799,8.6 2.65635,13 5.67005,28.7303 21.79422,63.749 41.20981,89.5 3.11015,4.125 11.50768,13.3546 18.66119,20.5102 40.48146,40.4933 94.27196,66.2679 151.50637,72.5968 13.67153,1.5118 38.55922,1.4709 53.07808,-0.087 73.24282,-7.8603 134.31342,-49.1914 166.25882,-112.5197 20.1066,-39.8595 29.1477,-83.1431 25.8185,-123.6048 -1.3244,-16.0953 -1.7004,-18.3805 -6.2348,-37.8952 -9.1238,-39.2663 -32.5044,-79.4614 -65.4123,-112.4548 -23.019,-23.0787 -56.6444,-49.49883 -112.6935,-88.5452 -33.50663,-23.34227 -42.16727,-29.55938 -65.47262,-47 -43.27906,-32.38799 -67.23524,-60.82354 -79.61371,-94.5 -11.05094,-30.06483 -11.47644,-63.78561 -1.20068,-95.15471 8.58174,-26.19774 24.99519,-50.62313 45.77868,-68.12475 C 911.09815,637.65922 924.30954,628 925.4921,628 c 0.25997,0 3.2931,-1.7138 6.74029,-3.80845 3.44718,-2.09464 10.76761,-5.64284 16.26761,-7.88487 19.5763,-7.98015 29.70202,-10.64299 52.8421,-13.8963 14.0773,-1.97914 44.5528,-1.47606 59.1579,0.97656 13.8684,2.32891 20.7216,3.65485 24,4.6435 12.2775,3.70243 29.5987,9.40369 32.5,10.69734 14.4213,6.4303 28.5861,13.78627 40.7201,21.14655 l 14.22,8.62567 0.03,51.19098 c 0.017,28.72444 -0.3592,51.43149 -0.8568,51.73899 -1.4943,0.92355 -2.697,-1.60159 -4.4913,-9.42997 -2.2058,-9.62344 -8.8298,-29.14537 -12.82,-37.78221 -10.5976,-22.93888 -31.1534,-47.39305 -50.7233,-60.34285 -15.0873,-9.98366 -33.5429,-17.69265 -51.5787,-21.54469 -11.4355,-2.44236 -43.8257,-2.44312 -55,-10e-4 -26.56048,5.80404 -46.98059,15.98863 -64.16254,32.00125 -14.97403,13.95496 -26.51249,33.10738 -32.03239,53.16978 -2.46203,8.9484 -2.75418,11.68255 -2.77821,26 -0.0326,19.39294 1.65644,27.7643 8.47387,42 6.23392,13.01724 14.68268,24.85348 26.13586,36.61488 15.94778,16.37696 29.2314,26.22723 92.15341,68.335 63.3939,42.42352 89.1434,60.58532 106.277,74.96005 3.3368,2.79954 7.5808,6.32322 9.4311,7.83039 37.4217,30.4828 70.6885,73.3539 86.6902,111.7178 13.924,33.3829 21.3117,68.2317 21.3117,100.5302 0,71.6728 -34.7638,150.5943 -88.7803,201.5508 -22.2821,21.0197 -50.4776,39.3718 -78.2197,50.9122 -53.0984,22.0881 -114.01503,28.4884 -173,18.1764 -9.66347,-1.6894 -30.1947,-6.9011 -40,-10.1537 -63.17294,-20.9556 -109.76741,-55.5897 -138.47152,-102.927 -14.14713,-23.3308 -22.66993,-45.878 -28.17855,-74.547 -2.45564,-12.7801 -2.97467,-49.298 -0.90257,-63.5025 4.1179,-28.2288 11.34112,-51.0724 24.31551,-76.8987 4.25542,-8.4706 7.87506,-15.7469 8.04364,-16.1695 0.65945,-1.6531 -19.16328,-9.9347 -47.80651,-19.9728 -11.84861,-4.1524 -35.09423,-10.2619 -51,-13.4041 -37.12587,-7.3341 -62.69324,-8.8374 -95,-5.5857 -41.20416,4.1473 -76.79881,18.7463 -104.70303,42.9437 -10.02045,8.6893 -27.50421,29.4142 -35.0854,41.5896 -5.7604,9.2512 -22.83922,42.322 -27.37088,53 -3.35749,7.9113 -15.91701,39.7822 -19.84372,50.3553 -7.75621,20.8844 -25.73189,78.2126 -26.63858,84.956 l -0.49596,3.6887 2.31879,-2.7245 c 1.27533,-1.4984 3.65201,-5.3234 5.28152,-8.5 8.30852,-16.1966 23.87035,-39.8838 32.99493,-50.2227 7.09288,-8.0369 15.58006,-17.2402 25.36195,-27.5021 9.84204,-10.325 10.80163,-11.7163 16.829,-24.4013 7.7944,-16.4039 12.73664,-23.4819 23.40232,-33.5154 6.29674,-5.9235 10.3084,-8.7173 17.32181,-12.0634 10.13511,-4.8353 13.61752,-5.8162 28.68608,-8.0794 8.54579,-1.2836 12.12119,-1.3588 20.40143,-0.4291 15.85284,1.78 38.53544,7.2985 39.2123,9.5401 0.1491,0.4938 -1.56594,1.7461 -3.81119,2.7829 -6.37905,2.9458 -14.85075,10.5683 -23.07864,20.7654 -15.11338,18.7306 -26.55821,27.8731 -42.28273,33.7771 -9.09548,3.415 -14.19995,4.1066 -36.5,4.9452 -20.11221,0.7564 -20.60104,0.8264 -25.84139,3.6991 -6.36852,3.4912 -26.65773,23.9982 -37.26072,37.6607 -9.2015,11.8567 -24.34291,34.6557 -23.54537,35.4532 0.33619,0.3362 2.3069,-0.5597 4.37937,-1.991 5.40076,-3.7298 10.61687,-5.6948 15.11678,-5.6948 2.1521,0 10.82906,-2.3056 19.28212,-5.1235 14.34676,-4.7827 16.03447,-5.1251 25.36921,-5.1468 12.59437,-0.029 19.69136,2.1488 30.5,9.3603 11.20073,7.4731 22.20308,21.5239 28.80746,36.7892 3.68133,8.509 4.00447,10.6647 1.44254,9.6236 -5.45088,-2.215 -9.28658,-2.7713 -24.25,-3.5168 -17.33331,-0.8635 -19.81942,-1.4267 -31.79364,-7.2017 -8.97569,-4.3289 -15.51396,-9.7928 -21.44399,-17.9203 -6.84178,-9.3772 -11.61194,-12.1562 -20.76747,-12.0989 -13.98676,0.088 -28.69514,10.7176 -39.53498,28.5727 -6.27345,10.3335 -9.11391,18.786 -11.12408,33.1028 -3.22704,22.9835 2.81016,41.9532 17.59275,55.2788 4.6166,4.1616 12.60705,8.3895 22.32141,11.8106 15.44016,5.4376 15.04732,5.47 -66.32332,5.47 -68.3989,0 -74.04856,-0.1268 -73.75,-1.6555 z m 189.44337,-131.8316 c -5.76528,-4.3653 -28.22339,-8.0096 -29.35214,-4.7629 -0.3063,0.881 0.91411,1.25 4.13441,1.25 4.56473,0 10.55477,1.1599 18.09768,3.5045 2.2,0.6838 5.125,1.2858 6.5,1.3376 2.37258,0.089 2.40418,0.022 0.62005,-1.3292 z m 2.65229,-80.2813 c 10.20591,-9.0973 19.04059,-14.9953 36.72766,-24.5192 4.125,-2.2212 8.38763,-4.6402 9.47251,-5.3755 1.95209,-1.3231 1.95134,-1.3369 -0.0726,-1.3369 -4.64154,0 -36.73984,18.352 -43.23649,24.7201 -0.73511,0.7206 -2.89415,2.4982 -4.79788,3.9502 -1.90373,1.4521 -3.90561,3.4703 -4.44863,4.4849 -1.72857,3.2299 1.75767,2.1747 6.35541,-1.9236 z M 305,1219.6638 c 0,-1.9902 -12.1701,-20.8093 -19.7881,-30.5992 -7.24937,-9.3162 -23.53238,-26.6306 -26.57619,-28.2596 -1.72818,-0.9249 -1.77383,-0.843 -0.51584,0.9249 0.75907,1.0667 5.07609,5.9514 9.59337,10.8548 10.21382,11.0869 15.75547,18.3067 26.9734,35.1417 8.46819,12.7084 10.31336,14.8441 10.31336,11.9374 z m 123.2152,-136.4695 c 14.20688,-12.1345 38.80351,-26.6403 61.2848,-36.1425 16.10515,-6.8072 37.21832,-13.0984 54,-16.0905 23.20006,-4.1366 27.0567,-4.4322 58,-4.4461 31.30382,-0.014 32.86085,0.1076 57,4.4528 5.13753,0.9248 18.63,4.3669 31,7.9084 3.85,1.1023 7.31657,1.692 7.70348,1.3104 0.54156,-0.5341 -10.62723,-30.0952 -16.12793,-42.6868 -0.48054,-1.1 -1.43663,-3.575 -2.12464,-5.5 -0.68801,-1.925 -1.81232,-4.85 -2.49848,-6.5 -0.68615,-1.65 -3.58224,-8.85 -6.43575,-16 -2.85351,-7.15 -5.56249,-13.9 -6.01997,-15 -0.45747,-1.1 -2.86177,-7.175 -5.3429,-13.5 -16.04523,-40.90329 -25.85396,-65.80277 -26.68897,-67.75 -0.53066,-1.2375 -1.3961,-3.2625 -1.9232,-4.5 C 627.63387,863.09709 606,807.99744 606,807.51794 c 0,-0.29685 -0.83838,-2.44733 -1.86307,-4.77884 -2.23378,-5.0826 -2.20393,-5.0067 -14.64362,-37.2391 -4.24531,-11 -8.08254,-20.9 -8.52717,-22 -0.44463,-1.1 -2.51196,-6.58155 -4.59405,-12.18122 -2.0821,-5.59968 -4.14377,-9.95989 -4.5815,-9.68936 -1.18602,0.733 -3.83268,6.80049 -11.28485,25.87058 -1.5045,3.85 -3.54511,8.82536 -4.53469,11.05635 -0.98958,2.23099 -4.3432,10.33099 -7.45249,18 -3.10929,7.66901 -6.261,15.29365 -7.0038,16.94365 -0.74281,1.65 -2.12759,5.025 -3.0773,7.5 -1.51289,3.94268 -17.51749,43.3993 -20.8897,51.5 -0.68687,1.65 -2.65464,6.375 -4.37282,10.5 -2.90105,6.9648 -6.50254,15.79216 -26.51954,65 -4.13903,10.175 -12.7487,31.325 -19.13259,47 -6.38389,15.675 -17.23616,42.675 -24.11616,60 -6.88001,17.325 -13.3492,33.525 -14.376,36 -6.72624,16.213 -6.79929,17.3053 -0.81545,12.1943 z"
       id="path1" />
  </g>
</svg>
